HIERARCHY
ROOT Hips
{
	OFFSET 0.00000 0.00000 0.00000
	CHANNELS 6 Xposition Yposition Zposition Zrotation Yrotation Xrotation 
	JOINT LHipJoint
	{
		OFFSET 0 0 0
		CHANNELS 3 Zrotation Yrotation Xrotation
		JOINT LeftUpLeg
		{
			OFFSET 1.41496 -1.84582 0.78394
			CHANNELS 3 Zrotation Yrotation Xrotation
			JOINT LeftLeg
			{
				OFFSET 2.58040 -7.08960 0.00000
				CHANNELS 3 Zrotation Yrotation Xrotation
				JOINT LeftFoot
				{
					OFFSET 2.64719 -7.27309 0.00000
					CHANNELS 3 Zrotation Yrotation Xrotation
					JOINT LeftToeBase
					{
						OFFSET 0.20718 -0.56921 2.20259
						CHANNELS 3 Zrotation Yrotation Xrotation
						End Site
						{
							OFFSET 0.00000 -0.00000 1.14243
						}
					}
				}
			}
		}
	}
	JOINT RHipJoint
	{
		OFFSET 0 0 0
		CHANNELS 3 Zrotation Yrotation Xrotation
		JOINT RightUpLeg
		{
			OFFSET -1.40551 -1.84582 0.78394
			CHANNELS 3 Zrotation Yrotation Xrotation
			JOINT RightLeg
			{
				OFFSET -2.56572 -7.04926 0.00000
				CHANNELS 3 Zrotation Yrotation Xrotation
				JOINT RightFoot
				{
					OFFSET -2.57974 -7.08778 0.00000
					CHANNELS 3 Zrotation Yrotation Xrotation
					JOINT RightToeBase
					{
						OFFSET -0.26704 -0.73369 2.20815
						CHANNELS 3 Zrotation Yrotation Xrotation
						End Site
						{
							OFFSET -0.00000 -0.00000 1.16246
						}
					}
				}
			}
		}
	}
	JOINT LowerBack
	{
		OFFSET 0 0 0
		CHANNELS 3 Zrotation Yrotation Xrotation
		JOINT Spine
		{
			OFFSET -0.04690 2.05196 -0.07017
			CHANNELS 3 Zrotation Yrotation Xrotation
			JOINT Spine1
			{
				OFFSET 0.04085 2.05260 0.00800
				CHANNELS 3 Zrotation Yrotation Xrotation
				JOINT Neck
				{
					OFFSET 0 0 0
					CHANNELS 3 Zrotation Yrotation Xrotation
					JOINT Neck1
					{
						OFFSET -0.03582 1.80995 0.19301
						CHANNELS 3 Zrotation Yrotation Xrotation
						JOINT Head
						{
							OFFSET 0.00952 1.80195 -0.36389
							CHANNELS 3 Zrotation Yrotation Xrotation
							End Site
							{
								OFFSET 0.00392 1.85062 -0.14494
							}
						}
					}
				}
				JOINT LeftShoulder
				{
					OFFSET 0 0 0
					CHANNELS 3 Zrotation Yrotation Xrotation
					JOINT LeftArm
					{
						OFFSET 3.55224 1.39726 -0.13667
						CHANNELS 3 Zrotation Yrotation Xrotation
						JOINT LeftForeArm
						{
							OFFSET 5.14507 -0.00000 -0.00000
							CHANNELS 3 Zrotation Yrotation Xrotation
							JOINT LeftHand
							{
								OFFSET 3.50646 -0.00000 0.00000
								CHANNELS 3 Zrotation Yrotation Xrotation
								JOINT LeftFingerBase
								{
									OFFSET 0 0 0
									CHANNELS 3 Zrotation Yrotation Xrotation
									JOINT LeftHandIndex1
									{
										OFFSET 0.62997 -0.00000 0.00000
										CHANNELS 3 Zrotation Yrotation Xrotation
										End Site
										{
											OFFSET 0.50790 -0.00000 0.00000
										}
									}
								}
								JOINT LThumb
								{
									OFFSET 0 0 0
									CHANNELS 3 Zrotation Yrotation Xrotation
									End Site
									{
										OFFSET 0.51565 -0.00000 0.51565
									}
								}
							}
						}
					}
				}
				JOINT RightShoulder
				{
					OFFSET 0 0 0
					CHANNELS 3 Zrotation Yrotation Xrotation
					JOINT RightArm
					{
						OFFSET -3.06467 1.61290 -0.28813
						CHANNELS 3 Zrotation Yrotation Xrotation
						JOINT RightForeArm
						{
							OFFSET -5.23200 -0.00000 -0.00000
							CHANNELS 3 Zrotation Yrotation Xrotation
							JOINT RightHand
							{
								OFFSET -3.65641 -0.00000 0.00000
								CHANNELS 3 Zrotation Yrotation Xrotation
								JOINT RightFingerBase
								{
									OFFSET 0 0 0
									CHANNELS 3 Zrotation Yrotation Xrotation
									JOINT RightHandIndex1
									{
										OFFSET -0.65681 -0.00000 0.00000
										CHANNELS 3 Zrotation Yrotation Xrotation
										End Site
										{
											OFFSET -0.52953 -0.00000 0.00000
										}
									}
								}
								JOINT RThumb
								{
									OFFSET 0 0 0
									CHANNELS 3 Zrotation Yrotation Xrotation
									End Site
									{
										OFFSET -0.53762 -0.00000 0.53762
									}
								}
							}
						}
					}
				}
			}
		}
	}
}
MOTION
Frames: 15
Frame Time: 0.0454545
0.00 0.00 0.00 0 0 0 0 0 0 -21 0 0 0 0 0 0 0 0 0 0 0 0 0 0 21 0 0 0 0 0 0 0 0 0 0 0 0 0 0 0 0 0 0 0 0 0 0 -16 0 0 21 0 0 11 0 0 0 -8 0 0 0 0 0 0 0 0 0 0 0 0 0 0 0 0 0 0 0 0 8 0 0 0 0 0 0 0 0 0 0 0 0 0 0 0 0 0
0.00 0.00 0.00 174.4560 -1.5666 -156.8070 0.0000 0.0000 0.0000 -24.7152 -7.4024 9.2043 2.2948 9.4549 27.2289 1.2207 -1.1586 21.3274 0.8506 -5.8822 -16.4431 0.0000 0.0000 0.0000 6.6259 12.2760 -71.2412 -12.4998 -18.5940 67.5646 -1.2271 -1.7505 -21.6263 -2.4103 9.6729 -27.9239 -5.1436 -4.5263 14.6162 2.8824 -6.7206 -2.5086 7.5526 -2.8231 -9.9845 0.5426 2.0559 -18.5651 -3.4786 3.1418 8.1355 -0.8764 1.3114 5.5206 -0.0000 -0.0000 0.0000 -84.2236 -12.5536 50.1803 149.1942 -41.5742 -108.0592 -0.0000 0.0000 -8.7176 20.9446 -6.7270 -2.5672 -7.1250 0.0000 -0.0000 -4.2720 22.7874 2.2901 -0.0000 -0.0000 0.0000 80.0569 -52.0819 30.7571 -82.6606 59.7955 -53.6483 0.0000 -0.0000 -12.8548 -20.5113 -8.5180 3.1717 7.1250 -0.0000 -0.0000 5.5258 -39.0089 0.8186
0.00 0.00 0.00 175.4030 0.3727 -156.2020 0.0000 0.0000 0.0000 -23.6438 -7.5897 0.1999 5.3802 13.7996 42.4406 2.8966 2.3020 31.6560 0.1014 2.0530 5.6521 0.0000 0.0000 0.0000 8.7387 14.4719 -65.7078 -13.1227 -18.8260 69.5062 -1.7315 -2.9444 -26.0618 -1.6721 8.1468 -23.1610 -3.8471 -3.8277 16.4862 3.0210 -5.6135 -1.8528 6.9053 -2.3503 -10.6121 0.2469 2.1527 -19.1102 -3.2723 3.3398 5.6077 -0.7481 1.4890 4.8007 0.0000 0.0000 0.0000 -86.0408 -9.3935 53.1168 145.2381 -44.6414 -105.3542 -0.0000 0.0000 -7.1382 20.9882 -7.2128 -2.7576 -7.1250 0.0000 -0.0000 -4.2406 22.2675 2.3237 0.0000 0.0000 0.0000 85.2024 -45.2528 25.3362 -76.6019 59.3107 -48.4238 0.0000 -0.0000 -10.8747 -23.6469 -10.1891 4.4291 7.1250 -0.0000 -0.0000 3.0007 -41.0624 0.2917
0.00 0.00 0.00 177.4550 0.3170 -156.3910 0.0000 0.0000 0.0000 -19.6509 -7.1304 -10.7377 10.4840 17.6732 61.0942 1.4483 -1.8911 23.4897 0.2440 3.1786 8.7764 0.0000 0.0000 0.0000 13.0870 15.1334 -58.5181 -12.7310 -18.6829 68.2878 -2.2815 -4.7157 -30.5147 -1.9667 8.7964 -25.1605 -1.4139 -3.3490 17.8905 3.5334 -4.5279 -0.9631 5.9128 -2.0041 -10.7124 -0.0558 1.9110 -18.9616 -3.2847 3.1340 3.6432 -0.7317 1.4563 4.1540 0.0000 -0.0000 0.0000 -88.5436 -4.9711 53.2749 134.5630 -50.9808 -97.4222 -0.0000 0.0000 -7.6329 22.7717 -8.0200 -3.3518 -7.1250 0.0000 -0.0000 -2.9516 21.2966 1.6802 0.0000 -0.0000 0.0000 88.6395 -36.7001 23.2151 -71.4421 58.6579 -44.0008 0.0000 -0.0000 -10.5219 -27.8097 -10.1476 5.3092 7.1250 -0.0000 -0.0000 -0.7039 -41.4184 -0.0622
0.00 0.00 0.00 179.1960 -0.4417 -156.7660 0.0000 0.0000 0.0000 -15.4538 -7.4559 -20.8400 15.5959 19.5285 77.0252 0.3097 -6.1716 14.5714 0.0033 0.3700 1.0165 0.0000 0.0000 0.0000 17.1358 14.6479 -52.3064 -11.9918 -18.3872 65.9629 -2.6333 -6.2235 -33.3253 -2.1941 9.2592 -26.6096 0.5928 -3.0165 18.6360 4.1014 -3.7026 -0.3667 5.2194 -1.7589 -10.6420 -0.4723 1.5969 -18.6779 -3.3507 2.8384 2.8818 -0.7168 1.3351 3.8651 -0.0000 -0.0000 0.0000 -89.8284 -1.4386 51.9853 120.4501 -56.1888 -86.0332 -0.0000 0.0000 -11.1584 24.9653 -8.9650 -4.1496 -7.1250 0.0000 -0.0000 -1.4000 20.1096 0.8336 -0.0000 -0.0000 0.0000 89.7306 -29.3009 23.9968 -69.4468 58.3421 -42.2995 0.0000 -0.0000 -10.1030 -29.1037 -10.9427 6.0322 7.1250 -0.0000 -0.0000 -1.8144 -42.4500 -0.1142
0.00 0.00 0.00 180.4880 -1.0005 -157.2100 0.0000 0.0000 0.0000 -11.2652 -7.8429 -32.1043 20.8850 19.9812 92.5884 -0.2160 -8.8695 6.8365 0.0095 -0.6287 -1.7276 0.0000 0.0000 0.0000 20.6886 13.5800 -45.8988 -11.0246 -17.9471 62.8615 -2.9389 -7.5002 -35.6460 -2.4172 9.6858 -27.9651 2.0561 -2.5721 19.1584 4.4660 -2.8340 -0.0136 4.5795 -1.4538 -10.6606 -0.8431 1.3353 -18.5416 -3.5342 2.5964 2.9681 -0.7359 1.2012 3.8672 0.0000 -0.0000 0.0000 -89.4625 3.0136 50.8093 107.0729 -58.8695 -74.7294 -0.0000 0.0000 -14.5760 25.7594 -11.1080 -5.3113 -7.1250 0.0000 -0.0000 -0.9479 17.6826 0.6153 0.0000 -0.0000 0.0000 89.7925 -22.4565 26.8773 -72.5155 58.8128 -44.9183 0.0000 -0.0000 -8.3666 -29.1541 -17.7610 9.6572 7.1250 -0.0000 -0.0000 -1.1468 -50.1184 0.1447
0.00 0.00 0.00 181.1820 -0.6483 -157.4670 0.0000 0.0000 0.0000 -6.9779 -7.4182 -48.8673 26.5855 18.9267 109.5919 -0.2934 -11.2790 -2.2744 0.0272 -1.0637 -2.9242 0.0000 0.0000 0.0000 23.6941 11.9520 -37.1067 -9.2831 -16.9865 57.0642 -3.3006 -8.1460 -37.8269 -2.4940 9.8270 -28.4183 2.7270 -1.7441 19.2032 4.1802 -1.6273 0.1476 3.5369 -0.9342 -10.5981 -0.8127 1.0853 -18.5518 -3.7545 2.2781 3.4888 -0.8351 1.0139 4.0305 -0.0000 -0.0000 0.0000 -85.6955 12.6940 51.1665 108.5900 -58.6531 -76.0266 -0.0000 0.0000 -11.9588 25.1183 -14.4075 -6.6536 -7.1250 0.0000 -0.0000 -1.6117 14.1442 1.1694 -0.0000 -0.0000 0.0000 89.1300 -15.9861 33.4937 -89.8174 59.9999 -59.8419 0.0000 -0.0000 -7.3565 -30.6633 -23.6714 13.3895 7.1250 -0.0000 -0.0000 -1.6043 -56.9774 0.4709
0.00 0.00 0.00 180.9970 0.0649 -157.5930 0.0000 0.0000 0.0000 -5.2567 -6.9524 -61.7330 29.1390 17.8664 117.6705 -0.0866 -12.4958 -7.5583 0.0872 -1.9048 -5.2425 0.0000 0.0000 0.0000 24.8284 10.5095 -29.4226 -7.4402 -15.6917 50.5204 -3.3606 -8.1986 -38.1497 -2.5414 9.9128 -28.6947 2.3825 -1.2871 18.7904 3.3907 -0.5254 0.2058 2.4843 -0.1442 -10.3518 -0.8858 0.4553 -18.1818 -3.3313 1.3955 3.6638 -0.7689 0.5937 4.0097 0.0000 -0.0000 0.0000 -81.1531 21.5705 53.5007 121.6079 -55.8660 -86.9934 -0.0000 0.0000 -11.5656 23.8737 -15.5587 -6.7701 -7.1250 0.0000 -0.0000 -2.5352 13.0576 1.8988 0.0000 -0.0000 0.0000 87.8371 -13.1692 39.3532 -109.3906 58.5305 -76.7099 0.0000 -0.0000 -7.9482 -29.8928 -14.0612 7.9509 7.1250 -0.0000 -0.0000 -2.3094 -46.0807 0.0616
0.00 0.00 0.00 180.4450 1.1860 -158.1840 0.0000 0.0000 0.0000 -4.2375 -7.4793 -76.8585 30.2484 17.2678 121.3452 0.1958 -14.3048 -12.1830 0.1399 -2.4104 -6.6413 0.0000 0.0000 0.0000 25.5520 8.3673 -16.8513 -4.4049 -12.6806 38.1842 -2.5452 -8.6374 -34.1481 -3.1211 10.8886 -31.9051 1.5626 0.3602 18.2106 2.2353 1.2614 0.2895 1.1987 0.6806 -9.9539 -1.6575 -1.0133 -17.0311 -2.2559 -0.5602 4.1098 -0.4741 -0.3442 3.9478 -0.0000 -0.0000 0.0000 -75.0430 32.1322 57.6576 137.4819 -49.4930 -99.6664 -0.0000 0.0000 -17.9733 20.8896 -15.3183 -5.7575 -7.1250 0.0000 -0.0000 -4.5289 13.6765 3.3404 -0.0000 -0.0000 0.0000 84.0768 -10.8842 46.0239 -130.3556 52.8511 -94.1096 0.0000 -0.0000 -5.8593 -25.7764 0.8707 -0.4204 7.1250 -0.0000 -0.0000 0.6184 -29.0126 0.2409
0.00 0.00 0.00 180.3150 2.2912 -159.3390 0.0000 0.0000 0.0000 -3.3835 -9.3066 -87.9232 28.9401 17.9643 117.0239 0.3472 -16.5806 -14.8647 0.2531 -3.2367 -8.9385 0.0000 0.0000 0.0000 25.6465 5.0143 -2.6140 -1.5441 -7.8437 22.2403 -0.8149 -7.8186 -21.6201 -3.9969 12.1563 -36.2873 1.2983 1.9602 18.3399 1.3050 3.2198 0.6796 -0.1775 1.6016 -9.5688 -2.6769 -2.1713 -15.6969 -1.2198 -2.4288 4.5342 -0.1421 -1.3915 3.8857 0.0000 0.0000 0.0000 -71.2446 40.1450 58.9567 145.7289 -44.2846 -105.6980 -0.0000 0.0000 -19.1377 19.5124 -14.8503 -5.1894 -7.1250 0.0000 -0.0000 -5.4397 14.3184 3.9436 0.0000 0.0000 0.0000 79.3486 -8.9291 50.1381 -140.7870 47.5967 -102.1441 0.0000 -0.0000 -0.9710 -24.9884 6.3820 -2.9656 7.1250 -0.0000 -0.0000 1.2919 -22.9454 0.6862
0.00 0.00 0.00 180.4460 2.7507 -159.8230 0.0000 0.0000 0.0000 -2.9750 -10.3782 -91.4593 27.3559 18.6499 111.9835 0.3583 -17.9068 -15.6863 0.3454 -3.7761 -10.4476 0.0000 0.0000 0.0000 25.1545 2.2031 4.9896 -0.4226 -4.1726 11.5627 0.0160 -7.6740 -10.5919 -4.1639 12.3754 -37.0733 1.6358 2.5126 18.4418 0.8842 3.9938 0.9919 -1.0210 1.9596 -9.2208 -2.9533 -2.6586 -15.0634 -0.8228 -3.0644 4.1423 -0.0051 -1.6746 4.1238 0.0000 -0.0000 0.0000 -70.9150 43.0941 57.7032 147.5622 -42.8935 -106.9621 -0.0000 0.0000 -16.7100 20.0398 -14.6663 -5.2765 -7.1250 0.0000 -0.0000 -5.0746 14.4559 3.6618 0.0000 -0.0000 0.0000 77.3289 -7.6534 51.4317 -142.7424 46.3585 -103.5738 0.0000 -0.0000 -0.3305 -25.5364 6.5846 -3.1358 7.1250 -0.0000 -0.0000 0.8949 -22.6899 0.4805
0.00 0.00 0.00 181.2060 3.4238 -160.0600 0.0000 0.0000 0.0000 -2.4942 -11.8819 -94.6667 22.7196 19.8217 97.9743 0.2303 -20.4497 -16.1970 0.5735 -4.8499 -13.4809 0.0000 0.0000 0.0000 24.1253 -0.3961 13.3774 0.0000 -0.0000 0.0000 -0.0531 -15.4993 11.4477 -3.0645 10.7987 -31.6041 2.6936 3.1640 18.3038 0.3245 5.0509 1.5877 -2.4502 2.4590 -8.3239 -3.3364 -3.2243 -14.3447 -0.0900 -3.8128 4.0419 0.2613 -2.0018 3.9805 -0.0000 -0.0000 0.0000 -74.0060 46.2762 52.1092 148.0151 -42.5352 -107.2694 -0.0000 0.0000 -11.6122 22.7677 -13.6039 -5.6378 -7.1250 0.0000 -0.0000 -3.1635 15.2897 2.2207 -0.0000 -0.0000 0.0000 74.9979 -4.7837 52.8680 -141.5315 47.1359 -102.6918 0.0000 -0.0000 -4.2504 -25.5712 4.1161 -1.9671 7.1250 -0.0000 -0.0000 0.8049 -25.4184 0.3815
0.00 0.00 0.00 182.6070 2.9777 -160.0720 0.0000 0.0000 0.0000 -3.4206 -12.8404 -92.3022 16.6506 19.7289 80.1642 -0.5130 -20.9622 -10.3061 0.7205 -5.4240 -15.1220 0.0000 0.0000 0.0000 24.8103 -1.6384 15.0429 0.0000 -0.0000 0.0000 -1.5572 -19.9385 24.6630 -2.0188 8.9052 -25.4992 3.8143 3.4396 18.9887 0.4059 5.7539 2.1518 -3.1879 2.8149 -7.9474 -3.7390 -3.8048 -14.6992 0.7541 -4.5545 4.6160 0.4844 -2.3263 3.8357 0.0000 0.0000 0.0000 -80.6560 43.4238 45.7122 144.3009 -45.3049 -104.6918 -0.0000 0.0000 -14.3770 24.4108 -11.7193 -5.2669 -7.1250 0.0000 -0.0000 -1.9259 17.1509 1.2731 0.0000 0.0000 0.0000 77.1775 -2.4205 50.6318 -130.4652 52.8061 -94.1969 0.0000 -0.0000 -6.7809 -23.0393 0.5667 -0.2410 7.1250 -0.0000 -0.0000 2.7630 -29.3590 1.0546
0.00 0.00 0.00 182.9280 2.5670 -160.4000 0.0000 0.0000 0.0000 -4.1875 -13.2231 -89.5927 15.0333 19.3980 75.3369 -0.7629 -20.0534 -6.5873 0.7015 -5.3534 -14.9194 0.0000 0.0000 0.0000 25.7529 -0.3088 9.1493 -0.5824 -4.8866 13.5855 -0.9272 -18.0698 19.9903 -1.7373 8.2959 -23.6165 3.9693 3.3857 19.6529 0.5269 5.8062 2.4476 -3.2005 2.8621 -7.9807 -3.8994 -3.9716 -14.9659 1.0460 -4.7669 4.5092 0.5788 -2.4194 3.8598 0.0000 -0.0000 0.0000 -82.9105 40.5205 44.2802 141.7416 -47.0035 -102.8457 -0.0000 0.0000 -16.8583 24.4903 -11.2997 -5.1004 -7.1250 0.0000 -0.0000 -1.8480 17.5999 1.2033 0.0000 -0.0000 0.0000 79.4804 -1.9319 48.4785 -122.6714 55.5550 -87.8720 0.0000 -0.0000 -5.7191 -22.3671 -0.1668 0.0686 7.1250 -0.0000 -0.0000 3.3146 -30.1516 1.2030
0.00 0.00 0.00 182.7340 1.9416 -161.4000 0.0000 0.0000 0.0000 -5.6270 -14.2092 -83.8217 13.8268 19.0607 71.6748 -0.8248 -18.6952 -3.7480 0.4869 -4.4742 -12.4148 0.0000 0.0000 0.0000 26.0921 0.8717 0.6638 -3.4917 -11.4514 33.8178 -0.2083 -16.4793 13.5770 -1.2732 7.1515 -20.1649 3.6966 3.0655 20.7872 0.6215 5.4714 2.9636 -2.9330 2.7528 -8.0884 -4.0518 -3.9865 -15.0850 1.2976 -4.7909 4.0551 0.6806 -2.4255 3.7484 0.0000 0.0000 0.0000 -85.5920 35.2656 43.0433 136.3019 -50.1145 -98.7650 -0.0000 0.0000 -18.1029 25.5276 -11.4207 -5.4020 -7.1250 0.0000 -0.0000 -1.1291 17.3628 0.7409 0.0000 0.0000 0.0000 83.3856 -1.8179 44.6567 -107.7499 58.7754 -75.3087 0.0000 -0.0000 -4.2849 -22.9646 -0.9842 0.4170 7.1250 -0.0000 -0.0000 2.8721 -31.0413 0.9809
